<svg
  xmlns="http://www.w3.org/2000/svg"
  viewBox="0 0 512 512"
>
  <!-- Inspiration: https://github.com/ionic-team/ionicons/blob/v7.0.0/src/svg/globe-sharp.svg -->
  <g
    fill="none"
    stroke="currentColor"
    stroke-width="32"
  >
    <path d="M256 48a208 208 0 1 0 0 416 208 208 0 0 0 0-416z" />
    <path
      d="M256 48c-58 0-113 93-113 208s55 208 113 208 113-93 113-208S314 48 256 48zm0 0v416m208-208H48"
    />
    <path d="M117 117a240 240 0 0 0 277 0m1 278a240 240 0 0 0-277 0" />
  </g>
</svg>
