<svg viewBox="0 0 79.71 62.28" xmlns="http://www.w3.org/2000/svg"><g fill="#011e41"><g transform="translate(-10.15 -18.86)"><path d="m39.33 63.6a2.51 2.51 0 0 0 -3.55 3.55l2.35 2.36h-25.42a2.49 2.49 0 1 0 0 5h25.43l-2.35 2.36a2.51 2.51 0 0 0 3.54 3.55l6.61-6.62a2.51 2.51 0 0 0 0-3.55z"/><path d="m87.29 69.51h-25.43l2.35-2.36a2.51 2.51 0 1 0 -3.54-3.56l-6.61 6.62a2.51 2.51 0 0 0 0 3.55l6.61 6.62a2.51 2.51 0 0 0 3.55-3.54l-2.35-2.36h25.42a2.49 2.49 0 0 0 0-5z"/><path d="m12.64 50.38a2.49 2.49 0 0 0 2.49-2.49 10.33 10.33 0 0 1 5-8.9v14.75a6.64 6.64 0 0 0 13.29 0v-14.74a10.33 10.33 0 0 1 5 8.9 2.49 2.49 0 1 0 5 0v-.06a7.89 7.89 0 0 1 1.58-4.89v5.81a5 5 0 0 0 10 0v-5.82a7.9 7.9 0 0 1 1.67 4.88s0 0 0 .06a2.49 2.49 0 1 0 5 0 11 11 0 0 1 6.64-9.45l-3.2 12a8.33 8.33 0 1 0 16.35 0l-3.18-12a11 11 0 0 1 6.64 9.45 2.49 2.49 0 1 0 5 0c0-8.95-7.14-15.7-16.6-15.7a16.47 16.47 0 0 0 -14.37 7.63 11.13 11.13 0 0 0 -17.76 0 16.47 16.47 0 0 0 -14.37-7.63c-9.47 0-16.6 6.75-16.6 15.7a2.49 2.49 0 0 0 2.49 2.49z"/></g><circle cx="63.1" cy="4.98" r="4.98"/><circle cx="16.61" cy="4.98" r="4.98"/><path d="m50 32.15a4.16 4.16 0 1 0 -4.16-4.15 4.16 4.16 0 0 0 4.16 4.15z" transform="translate(-10.15 -18.86)"/></g></svg>