<?xml version="1.0" encoding="utf-8"?>
<!-- Generator: Adobe Illustrator 21.0.0, SVG Export Plug-In . SVG Version: 6.00 Build 0)  -->
<svg version="1.1" id="Layer_1" xmlns="http://www.w3.org/2000/svg" xmlns:xlink="http://www.w3.org/1999/xlink" x="0px" y="0px"
	 viewBox="0 0 60 60" style="enable-background:new 0 0 60 60;" xml:space="preserve">
<style type="text/css">
	.st0{fill:#011E41;}
</style>
<g>
	<g id="Layer_2_3_">
		<g id="Icons_1_">
			<path class="st0" d="M23.6,38.2c-0.6-0.6-1.5-0.6-2.1,0c-0.6,0.6-0.6,1.5,0,2.1l1.4,1.4H7.5c-0.8,0-1.5,0.7-1.5,1.5
				c0,0.8,0.7,1.5,1.5,1.5h15.3l-1.4,1.4c-0.6,0.6-0.6,1.5,0,2.1s1.5,0.6,2.1,0c0,0,0,0,0,0l4-4c0.6-0.6,0.6-1.5,0-2.1L23.6,38.2z"
				/>
			<path class="st0" d="M52.5,41.7H37.1l1.4-1.4c0.6-0.6,0.6-1.5,0-2.1c-0.6-0.6-1.5-0.6-2.1,0c0,0,0,0,0,0l-4,4
				c-0.6,0.6-0.6,1.5,0,2.1l4,4c0.6,0.6,1.5,0.6,2.1,0s0.6-1.5,0-2.1c0,0,0,0,0,0l-1.4-1.4h15.3c0.8,0,1.5-0.7,1.5-1.5
				S53.3,41.7,52.5,41.7z"/>
		</g>
	</g>
	<g id="Layer_2_2_">
		<g id="Editable_Icons_1_">
			<path class="st0" d="M7.5,30.2c0.8,0,1.5-0.7,1.5-1.5c0,0,0,0,0,0c0-2.2,1.1-4.2,3-5.4v8.9c0,2.2,1.8,4,4,4s4-1.8,4-4v-8.9
				c1.9,1.1,3,3.2,3,5.4c0,0.8,0.7,1.5,1.5,1.5s1.5-0.7,1.5-1.5l0,0l0,0c0-1.1,0.4-2.1,1-2.9v3.5c0,1.7,1.3,3,3,3c1.7,0,3-1.3,3-3
				v-3.5c0.7,0.8,1,1.9,1,2.9c0,0,0,0,0,0c0,0.8,0.7,1.5,1.5,1.5s1.5-0.7,1.5-1.5c0.2-2.5,1.7-4.7,4-5.7l-1.9,7.2
				c-0.5,2.7,1.2,5.4,3.9,5.9c2.7,0.5,5.4-1.2,5.9-3.9c0.1-0.6,0.1-1.3,0-2L47,23c2.3,1,3.8,3.2,4,5.7c0,0.8,0.7,1.5,1.5,1.5
				s1.5-0.7,1.5-1.5c0-5.4-4.3-9.5-10-9.5c-3.5-0.1-6.8,1.6-8.7,4.6c-2.2-3-6.4-3.5-9.4-1.3c-0.5,0.4-0.9,0.8-1.3,1.3
				c-1.9-2.9-5.2-4.7-8.7-4.6c-5.7,0-10,4.1-10,9.5C6,29.6,6.7,30.2,7.5,30.2C7.5,30.2,7.5,30.2,7.5,30.2z"/>
			<circle class="st0" cx="44" cy="14.2" r="3"/>
			<circle class="st0" cx="16" cy="14.2" r="3"/>
			<path class="st0" d="M30,19.2c1.4,0,2.5-1.1,2.5-2.5c0-1.4-1.1-2.5-2.5-2.5c-1.4,0-2.5,1.1-2.5,2.5C27.5,18.1,28.6,19.2,30,19.2
				C30,19.2,30,19.2,30,19.2z"/>
		</g>
	</g>
</g>
</svg>
