<svg enable-background="new 0 0 60 60" viewBox="0 0 60 60" xmlns="http://www.w3.org/2000/svg"><g fill="#011e41"><path d="m23.6 38.2c-.6-.6-1.5-.6-2.1 0s-.6 1.5 0 2.1l1.4 1.4h-15.4c-.8 0-1.5.7-1.5 1.5s.7 1.5 1.5 1.5h15.3l-1.4 1.4c-.6.6-.6 1.5 0 2.1s1.5.6 2.1 0l4-4c.6-.6.6-1.5 0-2.1z"/><path d="m52.5 41.7h-15.4l1.4-1.4c.6-.6.6-1.5 0-2.1s-1.5-.6-2.1 0l-4 4c-.6.6-.6 1.5 0 2.1l4 4c.6.6 1.5.6 2.1 0s.6-1.5 0-2.1l-1.4-1.4h15.3c.8 0 1.5-.7 1.5-1.5s-.6-1.6-1.4-1.6z"/><path d="m7.5 30.2c.8 0 1.5-.7 1.5-1.5 0-2.2 1.1-4.2 3-5.4v8.9c0 2.2 1.8 4 4 4s4-1.8 4-4v-8.9c1.9 1.1 3 3.2 3 5.4 0 .8.7 1.5 1.5 1.5s1.5-.7 1.5-1.5c0-1.1.4-2.1 1-2.9v3.5c0 1.7 1.3 3 3 3s3-1.3 3-3v-3.5c.7.8 1 1.9 1 2.9 0 .8.7 1.5 1.5 1.5s1.5-.7 1.5-1.5c.2-2.5 1.7-4.7 4-5.7l-1.9 7.2c-.5 2.7 1.2 5.4 3.9 5.9s5.4-1.2 5.9-3.9c.1-.6.1-1.3 0-2l-1.9-7.2c2.3 1 3.8 3.2 4 5.7 0 .8.7 1.5 1.5 1.5s1.5-.7 1.5-1.5c0-5.4-4.3-9.5-10-9.5-3.5-.1-6.8 1.6-8.7 4.6-2.2-3-6.4-3.5-9.4-1.3-.5.4-.9.8-1.3 1.3-1.9-2.9-5.2-4.7-8.7-4.6-5.7 0-10 4.1-10 9.5.1.9.8 1.5 1.6 1.5z"/><circle cx="44" cy="14.2" r="3"/><circle cx="16" cy="14.2" r="3"/><path d="m30 19.2c1.4 0 2.5-1.1 2.5-2.5s-1.1-2.5-2.5-2.5-2.5 1.1-2.5 2.5 1.1 2.5 2.5 2.5z"/></g></svg>