<svg id="Layer_1" data-name="Layer 1" xmlns="http://www.w3.org/2000/svg" viewBox="0 0 79.71 62.28"><defs><style>.cls-1{fill:#011e41;}</style></defs><title>Restoring-family-links-3-100-100-2</title><g id="Layer_2" data-name="Layer 2"><g id="Icons"><path class="cls-1" d="M39.33,63.6a2.51,2.51,0,0,0-3.55,3.55l2.35,2.36H12.71a2.49,2.49,0,1,0,0,5H38.14l-2.35,2.36a2.51,2.51,0,0,0,3.54,3.55h0l6.61-6.62a2.51,2.51,0,0,0,0-3.55Z" transform="translate(-10.15 -18.86)"/><path class="cls-1" d="M87.29,69.51H61.86l2.35-2.36a2.51,2.51,0,1,0-3.54-3.56h0l-6.61,6.62a2.51,2.51,0,0,0,0,3.55l6.61,6.62a2.51,2.51,0,0,0,3.55-3.54h0l-2.35-2.36H87.29a2.49,2.49,0,0,0,0-5Z" transform="translate(-10.15 -18.86)"/></g></g><g id="Layer_2-2" data-name="Layer 2"><g id="Editable_Icons" data-name="Editable Icons"><path class="cls-1" d="M12.64,50.38a2.49,2.49,0,0,0,2.49-2.49h0a10.33,10.33,0,0,1,5-8.9V53.74a6.64,6.64,0,0,0,13.29,0V39a10.33,10.33,0,0,1,5,8.9,2.49,2.49,0,1,0,5,0v-.06A7.89,7.89,0,0,1,45,42.95v5.81a5,5,0,0,0,10,0V42.94a7.9,7.9,0,0,1,1.67,4.88s0,0,0,.06a2.49,2.49,0,1,0,5,0,11,11,0,0,1,6.64-9.45l-3.2,12a8.33,8.33,0,1,0,16.35,0l-3.18-12a11,11,0,0,1,6.64,9.45,2.49,2.49,0,1,0,5,0c0-8.95-7.14-15.7-16.6-15.7a16.47,16.47,0,0,0-14.37,7.63,11.13,11.13,0,0,0-17.76,0,16.47,16.47,0,0,0-14.37-7.63c-9.47,0-16.6,6.75-16.6,15.7a2.49,2.49,0,0,0,2.49,2.49Z" transform="translate(-10.15 -18.86)"/><circle class="cls-1" cx="63.1" cy="4.98" r="4.98"/><circle class="cls-1" cx="16.61" cy="4.98" r="4.98"/><path class="cls-1" d="M50,32.15A4.16,4.16,0,1,0,45.84,28,4.16,4.16,0,0,0,50,32.15Z" transform="translate(-10.15 -18.86)"/></g></g></svg>