<svg xmlns="http://www.w3.org/2000/svg" viewBox="0 0 690 800">
<!-- See: https://www.languageicon.org/ -->
<path d="M345 103 78 9v581l267-87V103z"/>
<path fill="#fff" d="M338 103 616 8v582l-278-87V103zM9 692l329-110V102L9 212v480z"/>
<path d="m489 699 47 77 24-72-71-5zM121 268c-2-2 2 14 8 19 10 10 17 12 22 12 9 0 20-2 27-5 6-3 18-9 22-17 1-2 3-5 2-13-1-5-5-7-10-7s-18 4-24 6l-26 7c-6 1-19 0-21-2Zm166 188a2818 2818 0 0 1-93-39c21-31 34-55 35-58 3-7 25-49 25-52l1-14c0-2-8 2-19 6s-31 16-39 18l-46 16c-13 5-37 11-47 14l-25 5s1 7 3 10 6 8 13 10 16 1 21 0 12-5 13-7 0-7 2-9 26-7 35-10 45-15 50-15l-39 79c-9 17-63 91-74 104-9 10-30 35-37 41 2 1 15-1 17-2 15-9 39-40 47-49 24-27 44-56 61-81 3 1 28 22 35 27l39 22c6 3 28 13 29 9s-4-24-7-25Z"/>
<path fill-rule="evenodd" d="M163 736a163 163 0 0 0 15 9 348 348 0 0 0 35 15 385 385 0 0 0 48 15l28 5 32 3h26l29-3 26-4 19-5 19-7 14-5 12-5 17-8 15-8c4-2 12-9 17-9a9 9 0 0 1 8 9c0 8-11 10-16 14s-12 7-18 10a326 326 0 0 1-34 15 405 405 0 0 1-45 14l-16 4-41 5h-38a553 553 0 0 1-79-14 331 331 0 0 1-33-12 300 300 0 0 1-60-30c-4-2-4-4-4-7a8 8 0 0 1 9-8c4 0 13 7 15 7Zm167-161L17 679V219l313-104Zm17-474v481a10 10 0 0 1-2 5 7 7 0 0 1-3 2c-7 3-329 111-333 111s-7-2-9-6V212l2-5c2-3 6-4 9-5 5-1 322-108 327-108 3 0 9 2 9 7Z"/>
<path fill-rule="evenodd" d="m607 578-260-81V109l260-88ZM624 9v579c0 7-4 10-9 10l-35-11-108-33-24-8-21-7c-31-9-62-18-93-29l-4-5V101a10 10 0 0 1 3-5c2-2 100-35 139-48 10-4 139-48 143-48a9 9 0 0 1 9 9Z"/>
<path d="M690 699 343 588l2-481 345 110v482z"/>
<path fill="#fff" fill-rule="evenodd" d="m515 322-34 82 63 19Zm-20-78 45 14 81 293-46-14-16-60-95-29-21 49-45-13Z"/>
</svg>
