<svg viewBox="0 0 48 48" xmlns="http://www.w3.org/2000/svg"><g fill="#000"><rect height="7" rx="1" width="22" x="26" y="10"/><path d="m28 47a1.003 1.003 0 0 0 1 1h16a1.003 1.003 0 0 0 1-1v-28h-18zm3-22a1.003 1.003 0 0 1 1-1h10a1.003 1.003 0 0 1 1 1v7a1.003 1.003 0 0 1 -1 1h-10a1.003 1.003 0 0 1 -1-1zm1 11h10a1 1 0 0 1 0 2h-10a1 1 0 0 1 0-2zm-12.5-28h-5.5v-5h2.5a1.5 1.5 0 0 0 0-3h-12a1.5 1.5 0 0 0 0 3h2.5v5h-5.5a1.5 1.5 0 0 0 0 3h3.5v23a2.006 2.006 0 0 0 2 2v2a1 1 0 0 0 1 1h1v7.5a1.5 1.5 0 0 0 3 0v-7.5h1a1 1 0 0 0 1-1v-2a2.006 2.006 0 0 0 2-2v-23h3.5a1.5 1.5 0 0 0 0-3zm-6.5 18h-5v-13h5z"/></g></svg>